<svg width="284.000000" height="323.000000" viewBox="0 0 284 323" fill="none" xmlns="http://www.w3.org/2000/svg" xmlns:xlink="http://www.w3.org/1999/xlink">
	<desc>
			Created with Pixso.
	</desc>
	<defs>
		<clipPath id="clip6_870">
			<rect id="Frame" width="283.500000" height="322.899994" fill="white" fill-opacity="0"/>
		</clipPath>
	</defs>
	<rect id="Frame" width="283.500000" height="322.899994" fill="#FFFFFF" fill-opacity="0"/>
	<g clip-path="url(#clip6_870)">
		<path id="Vector" d="M169.3 157.8C163.6 170.2 162.39 184.3 162.89 197.9C163.39 213.6 166 229.6 173.6 243.5C181.2 257.29 194.3 268.7 209.9 271.2C224.9 273.6 240.5 267.5 251.6 257.1C262.7 246.7 269.6 232.4 273.4 217.7C279.1 195.7 277.79 170.9 265.1 152.1C242 118 187 119.6 169.3 157.8Z" fill="#FFFFFF" fill-opacity="1.000000" fill-rule="nonzero"/>
		<path id="Vector" d="M268.2 218C264.9 230.9 258.79 243.4 249.1 252.6C239.4 261.7 225.7 267.1 212.5 265C200 263 189.2 254.4 182.4 243.6C188.9 250.8 197.4 256.1 206.9 257.6C220.1 259.7 233.8 254.4 243.5 245.2C253.2 236.1 259.29 223.6 262.6 210.7C267.4 192.1 266.5 171.2 256.5 154.89C258.1 156.6 259.6 158.5 261 160.6C272.1 176.9 273.2 198.7 268.2 218Z" fill="#E6E6E6" fill-opacity="1.000000" fill-rule="nonzero"/>
		<path id="Vector" d="M216.5 274C214.1 274 211.8 273.79 209.4 273.4C194.2 270.9 180 260.1 171.5 244.5C164.7 232.2 161.1 216.9 160.5 197.9C159.89 180.8 162 167.7 167.1 156.7C175.4 138.8 192.5 127.2 213 125.5C234.6 123.8 255.2 133.39 266.9 150.6C278.9 168.3 282.1 192.9 275.6 218.1C271.29 234.9 263.5 248.9 253.1 258.6C242.7 268.5 229.4 274 216.5 274ZM218.1 130.1C216.6 130.1 215 130.2 213.5 130.3C194.7 131.8 179 142.5 171.4 158.8C166.6 169.1 164.7 181.5 165.2 197.9C165.8 216.2 169.2 230.7 175.6 242.4C183.5 256.79 196.4 266.7 210.2 268.9C223.7 271.1 238.6 266.1 250 255.4C259.7 246.3 267 233 271.1 217.1C277.29 193.2 274.29 170 263.1 153.39C253.2 138.7 236.3 130.1 218.1 130.1Z" fill="#333333" fill-opacity="1.000000" fill-rule="nonzero"/>
		<path id="Vector" d="M30.5 152.89C22.5 166.4 19 182.2 17.5 197.9C15.5 218.6 18 242 33.5 255.9C51 271.5 80.3 268.2 97.7 252.4C115.1 236.6 121.8 211.7 120.6 188.2C119.8 172.3 115.5 156.2 105.4 143.89C82.5 116.1 47.6 124.2 30.5 152.89Z" fill="#FFFFFF" fill-opacity="1.000000" fill-rule="nonzero"/>
		<path id="Vector" d="M98.79 247.8C98.5 248.1 98.1 248.4 97.79 248.8C81.5 263.5 54 266.7 37.6 252C23 239 20.69 217.1 22.6 197.6C24 182.9 27.29 168.1 34.79 155.39C39.19 148 44.89 142.1 51.19 137.89C47.6 141.3 44.39 145.39 41.6 150C34.1 162.7 30.79 177.5 29.39 192.2C27.6 211.7 29.79 233.6 44.39 246.6C59 259.6 82.29 258.6 98.79 247.8Z" fill="#E6E6E6" fill-opacity="1.000000" fill-rule="nonzero"/>
		<path id="Vector" d="M62.19 268.5C51 268.5 40.1 264.9 32 257.6C14.89 242.3 13.39 216.6 15.19 197.6C17 178.8 21.29 163.7 28.5 151.6C37.89 135.8 52.89 125.6 68.69 124.4C83.1 123.3 96.79 129.7 107.3 142.3C116.6 153.7 122.1 169.5 123 188C124.4 215.1 115.8 239.1 99.29 254C88.79 263.7 75.19 268.5 62.19 268.5ZM32.5 154.1C25.69 165.6 21.5 180 19.79 198.1C18.1 216 19.39 240.2 35 254.1C52.29 269.5 80.5 264.79 96.1 250.7C111.5 236.8 119.6 214.1 118.2 188.4C117.6 176.2 114.5 158.8 103.5 145.39C94.19 134 81.89 128.2 69 129.2C54.79 130.3 41.1 139.6 32.5 154.1Z" fill="#333333" fill-opacity="1.000000" fill-rule="nonzero"/>
		<path id="Vector" d="M79.39 209C81.89 210.5 85.29 210.4 87.79 208.8C94 205 89.2 196.5 83.1 196.4C76.2 196.3 73.39 205.4 79.39 209Z" fill="#333333" fill-opacity="1.000000" fill-rule="nonzero"/>
		<path id="Vector" d="M188.6 207.7C190.5 208.9 193.1 208.8 195.1 207.6C199.9 204.7 196.2 198.1 191.4 198C186.2 197.9 184 204.9 188.6 207.7Z" fill="#333333" fill-opacity="1.000000" fill-rule="nonzero"/>
		<path id="Vector" d="M114.5 0C116.1 5.59 117.4 11.3 118.4 17C120.2 26.7 114.7 36.3 105.4 39.7C92.2 44.6 79.2 50.1 65.6 54.2C52.2 58.2 38.5 62.4 26.9 70.19C15.3 78 6 90.3 5 104.3C-5 88.4 0.9 67 14.2 53.7C27.5 40.4 45.8 33.7 63.4 27.3C81.1 20.9 101.7 13.7 114.5 0Z" fill="#333333" fill-opacity="1.000000" fill-rule="nonzero"/>
		<path id="Vector" d="M169 0C166.8 7.8 165.1 15.7 164 23.7C163.1 29.8 166.8 35.7 172.6 37.7C187.8 43 202.4 49.5 217.8 54.2C231.2 58.2 244.9 62.4 256.5 70.19C268.1 78 277.6 90.3 278.5 104.3C288.5 88.4 282.6 67 269.4 53.7C256.1 40.4 237.8 33.7 220.2 27.3C202.5 20.9 181.9 13.7 169 0Z" fill="#333333" fill-opacity="1.000000" fill-rule="nonzero"/>
		<path id="Vector" d="M191.7 322.9L83.39 322.9C82.1 322.9 81.1 321.9 81.1 320.6C81.1 319.29 82.1 318.29 83.39 318.29L191.7 318.29C193 318.29 194 319.29 194 320.6C194 321.9 193 322.9 191.7 322.9Z" fill="#333333" fill-opacity="1.000000" fill-rule="nonzero"/>
	</g>
</svg>
