<svg width="22.000000" height="22.000000" viewBox="0 0 22 22" fill="none" xmlns="http://www.w3.org/2000/svg" xmlns:xlink="http://www.w3.org/1999/xlink">
	<desc>
			Created with Pixso.
	</desc>
	<defs>
		<clipPath id="clip115_636">
			<rect id="google 1" width="22.000000" height="22.000000" fill="white" fill-opacity="0"/>
		</clipPath>
	</defs>
	<rect id="google 1" width="22.000000" height="22.000000" fill="#FFFFFF" fill-opacity="0"/>
	<g clip-path="url(#clip115_636)">
		<path id="Vector" d="M21.1694 9.0874L12.1958 9.08698C11.7998 9.08698 11.4785 9.40813 11.4785 9.80438L11.4785 12.671C11.4785 13.0672 11.7998 13.3884 12.1958 13.3884L17.2495 13.3884C16.6958 14.8245 15.6631 16.0272 14.3457 16.7913L16.5 20.5214C19.9565 18.5224 22 15.0149 22 11.0885C22 10.5294 21.959 10.1297 21.8765 9.67973C21.814 9.33783 21.5171 9.0874 21.1694 9.0874Z" fill="#167EE6" fill-opacity="1.000000" fill-rule="nonzero"/>
		<path id="Vector" d="M11 17.6956C8.52686 17.6956 6.36816 16.3444 5.2085 14.345L1.47852 16.4949C3.37646 19.7847 6.93262 22 11 22C12.9951 22 14.8779 21.4628 16.5 20.5265L16.5 20.5214L14.3452 16.7913C13.3594 17.3629 12.2188 17.6956 11 17.6956Z" fill="#12B347" fill-opacity="1.000000" fill-rule="nonzero"/>
		<path id="Vector" d="M16.5 20.5265L16.5 20.5214L14.3452 16.7913C13.3599 17.3629 12.2192 17.6956 11 17.6956L11 22C12.9951 22 14.8784 21.4628 16.5 20.5265Z" fill="#0F993E" fill-opacity="1.000000" fill-rule="nonzero"/>
		<path id="Vector" d="M4.3042 11C4.3042 9.78104 4.63721 8.64059 5.2085 7.65503L1.47852 5.50513C0.537109 7.12192 0 8.99956 0 11C0 13.0005 0.537109 14.8781 1.47852 16.4949L5.2085 14.345C4.63721 13.3594 4.3042 12.219 4.3042 11Z" fill="#FFD500" fill-opacity="1.000000" fill-rule="nonzero"/>
		<path id="Vector" d="M11 4.30435C12.6128 4.30435 14.0938 4.87738 15.251 5.83055C15.5361 6.06569 15.9512 6.04871 16.2129 5.78725L18.2437 3.75612C18.5405 3.45946 18.5195 2.97386 18.2026 2.69896C16.2637 1.0172 13.7417 0 11 0C6.93262 0 3.37646 2.21535 1.47852 5.50511L5.2085 7.65501C6.36816 5.65555 8.52686 4.30435 11 4.30435Z" fill="#FF4B26" fill-opacity="1.000000" fill-rule="nonzero"/>
		<path id="Vector" d="M15.251 5.83055C15.5366 6.06569 15.9512 6.04871 16.2129 5.78725L18.2437 3.75612C18.5405 3.45946 18.5195 2.97386 18.2026 2.69896C16.2642 1.01715 13.7417 0 11 0L11 4.30435C12.6128 4.30435 14.0938 4.87738 15.251 5.83055Z" fill="#D93F21" fill-opacity="1.000000" fill-rule="nonzero"/>
	</g>
</svg>
